# xmcd
#
# Track frame offsets:
#	150
#	13457
#	26891
#	38873
#	52013
#	64000
#	76860
#	88551
#	100758
#	117097
#	135812
#	147351
#	158430
#	170158
#	179251
#	202040
#	218030
#	230228
#	240594
#	250235
#
# Disc length: 3673 seconds
#
# Revision: 0
# Processed by: cddbd v1.5.2PL0 Copyright (c) Steve Scherf et al.
# Submitted via: EasyCDDAExtractor 10.0.1.1
#
DISCID=140e5714
DTITLE=Various Artist - Yesterday once more - Summer in the city
DYEAR=2008
DGENRE=Country
TTITLE0=Lobo - My and you and a dog nambe Boo
TTITLE1=Petula Clark - It's a sin of the times
TTITLE2=The Mamas and The Papas - California dreamin'
TTITLE3=Middle of the Road - Sacramento (A wonderful town)
TTITLE4=Connie Francis - Vacation
TTITLE5=Bee Gees - Spicks and Specks
TTITLE6=Bobby Vee - The night has a thousand eyes
TTITLE7=The Lovin' Spoonful - Summer in the city
TTITLE8=Johnny River - Poor side of town
TTITLE9=The Carpenters - Ticket to ride
TTITLE10=Gerry and the Peacemakers - Don't let the sun catch you crying
TTITLE11=Jan and Dean - Surf City
TTITLE12=Martha Reeves - Dancing in the street
TTITLE13=The Drifters - Saturday night at the movies
TTITLE14=The Chi-Lites - Have you seen her
TTITLE15=Redbone - Come and get your love
TTITLE16=Billy Stewart - Summertime
TTITLE17=The Searchers - Don't throw your love away
TTITLE18=Del Shannon - Keep searching (We'll follow the sun)
TTITLE19=Dionne Warwick - Do you know the to San Jose
EXTD=
EXTT0=
EXTT1=
EXTT2=
EXTT3=
EXTT4=
EXTT5=
EXTT6=
EXTT7=
EXTT8=
EXTT9=
EXTT10=
EXTT11=
EXTT12=
EXTT13=
EXTT14=
EXTT15=
EXTT16=
EXTT17=
EXTT18=
EXTT19=
PLAYORDER=
